<svg width="483" height="397" viewBox="0 0 483 397" fill="none" xmlns="http://www.w3.org/2000/svg">
<path d="M56.2321 395.754C37.0531 376.466 22.2611 352.842 13.2861 327.165C1.10306 292.311 -0.252945 254.559 2.19305 217.718C4.20505 187.41 9.82006 154.943 31.4111 133.578C56.8891 108.367 98.2421 106.105 132.255 117.411C166.268 128.717 195.193 151.178 224.943 171.17C259.953 194.696 298.532 215.733 340.6 218.817C357.373 220.047 374.484 218.396 390.845 222.292C424.471 230.299 450.097 263.884 448.938 298.431C447.804 332.246 424.62 361.247 416.929 394.195" stroke="#8EE4FD" stroke-width="2.3584" stroke-miterlimit="10" stroke-linecap="round" stroke-linejoin="round" stroke-dasharray="8.25 8.25"/>
<path d="M461.452 152.941C465.359 152.941 468.527 149.773 468.527 145.866C468.527 141.959 465.359 138.791 461.452 138.791C457.545 138.791 454.377 141.959 454.377 145.866C454.377 149.773 457.545 152.941 461.452 152.941Z" fill="#8EE4FD"/>
<path d="M46.7142 66.6871C50.5565 62.7021 50.4407 56.3569 46.4557 52.5146C42.4706 48.6724 36.1254 48.7882 32.2831 52.7732C28.4409 56.7583 28.5567 63.1035 32.5417 66.9457C36.5268 70.788 42.872 70.6722 46.7142 66.6871Z" fill="#8EE4FD"/>
<path d="M35.3714 257.25C42.5351 257.25 48.3424 251.442 48.3424 244.279C48.3424 237.115 42.5351 231.308 35.3714 231.308C28.2077 231.308 22.4004 237.115 22.4004 244.279C22.4004 251.442 28.2077 257.25 35.3714 257.25Z" fill="#8EE4FD"/>
<path d="M417.426 54.4298C424.59 54.4298 430.397 48.6225 430.397 41.4588C430.397 34.2951 424.59 28.4878 417.426 28.4878C410.262 28.4878 404.455 34.2951 404.455 41.4588C404.455 48.6225 410.262 54.4298 417.426 54.4298Z" fill="#8EE4FD"/>
<path d="M476.546 158.608C480 155.154 480 149.555 476.546 146.101C473.092 142.647 467.493 142.647 464.039 146.101C460.585 149.555 460.585 155.154 464.039 158.608C467.493 162.062 473.092 162.062 476.546 158.608Z" stroke="#8EE4FD" stroke-width="1.1792" stroke-miterlimit="10"/>
<path d="M41.0204 234.632C42.2124 229.56 39.0673 224.483 33.9957 223.291C28.924 222.099 23.8463 225.244 22.6544 230.316C21.4624 235.387 24.6075 240.465 29.6791 241.657C34.7508 242.849 39.8284 239.704 41.0204 234.632Z" stroke="#8EE4FD" stroke-width="1.1792" stroke-miterlimit="10"/>
<path d="M39.3356 53.6807C43.4802 49.5361 43.4802 42.8164 39.3356 38.6718C35.191 34.5272 28.4713 34.5272 24.3267 38.6718C20.1821 42.8164 20.1821 49.5361 24.3267 53.6807C28.4713 57.8253 35.191 57.8253 39.3356 53.6807Z" stroke="#8EE4FD" stroke-width="1.1792" stroke-miterlimit="10"/>
<path d="M439.466 173.878H385.633C382.535 173.878 380.023 171.366 380.023 168.268V114.435C380.023 111.337 382.535 108.825 385.633 108.825H439.466C442.564 108.825 445.076 111.337 445.076 114.435V168.268C445.076 171.366 442.564 173.878 439.466 173.878Z" fill="#8EE4FD"/>
<path d="M393.822 134.367C393.822 129.118 397.207 126.112 401.694 126.112C406.181 126.112 409.566 129.117 409.566 134.367C409.566 139.657 406.181 142.622 401.694 142.622C397.207 142.621 393.822 139.657 393.822 134.367ZM419.089 126.536H426.244L406.009 156.166H398.857L419.089 126.536ZM403.555 134.367C403.555 131.53 402.624 130.686 401.694 130.686C400.763 130.686 399.829 131.53 399.829 134.367C399.829 137.204 400.763 138.051 401.694 138.051C402.625 138.051 403.555 137.203 403.555 134.367ZM415.536 148.336C415.536 143.087 418.92 140.081 423.408 140.081C427.895 140.081 431.28 143.086 431.28 148.336C431.28 153.626 427.895 156.591 423.408 156.591C418.92 156.59 415.536 153.626 415.536 148.336ZM425.269 148.336C425.269 145.499 424.338 144.652 423.408 144.652C422.477 144.652 421.547 145.5 421.547 148.336C421.547 151.172 422.478 152.017 423.408 152.017C424.338 152.017 425.269 151.172 425.269 148.336Z" fill="white"/>
<path d="M91.1202 160.274H55.7732C54.6512 160.274 53.7422 161.183 53.7422 162.305V197.652C53.7422 198.774 54.6512 199.683 55.7732 199.683H68.4372L72.8242 207.281C73.1012 207.761 73.7932 207.761 74.0702 207.281L78.4572 199.683H91.1212C92.2432 199.683 93.1522 198.774 93.1522 197.652V162.305C93.1512 161.183 92.2412 160.274 91.1202 160.274Z" fill="#F64652"/>
<path d="M80.2569 173.332C78.0379 172.114 75.2649 172.601 73.4749 174.39L73.4479 174.417L73.4209 174.39C72.2899 173.259 70.8039 172.69 69.3169 172.69C67.8299 172.69 66.3449 173.259 65.2129 174.39C62.9499 176.659 62.9499 180.335 65.2129 182.597L65.2399 182.624L71.4079 188.792C72.5339 189.918 74.3609 189.918 75.4869 188.792L81.6549 182.624L81.6749 182.597C82.8129 181.466 83.3749 179.98 83.3749 178.493C83.3759 176.493 82.3479 174.479 80.2569 173.332Z" fill="white"/>
<path d="M202.167 50.2629H165.491L164.589 47.4149H193.426C194.419 47.4149 195.305 46.7929 195.643 45.8589L204.089 22.4839C204.35 21.7619 204.243 20.9569 203.801 20.3289C203.36 19.7009 202.64 19.3259 201.872 19.3259H155.693L153.539 12.5249C153.228 11.5459 152.319 10.8799 151.292 10.8799H143.533C142.231 10.8799 141.176 11.9349 141.176 13.2369C141.176 14.5389 142.231 15.5939 143.533 15.5939H149.566L161.517 53.3329C161.828 54.3119 162.737 54.9779 163.764 54.9779H168.128C167.361 55.9719 166.9 57.2129 166.9 58.5629C166.9 61.8089 169.541 64.4499 172.787 64.4499C176.033 64.4499 178.674 61.8089 178.674 58.5629C178.674 57.2129 178.213 55.9719 177.446 54.9779H190.191C189.424 55.9719 188.963 57.2129 188.963 58.5629C188.963 61.8089 191.604 64.4499 194.85 64.4499C198.096 64.4499 200.737 61.8089 200.737 58.5629C200.737 57.2129 200.276 55.9719 199.509 54.9779H202.167C203.469 54.9779 204.524 53.9229 204.524 52.6209C204.524 51.3179 203.469 50.2629 202.167 50.2629ZM198.515 24.0399L191.772 42.7009H163.096L157.186 24.0399H198.515ZM172.788 61.0239C171.431 61.0239 170.326 59.9199 170.326 58.5629C170.326 57.2059 171.43 56.1009 172.788 56.1009C174.145 56.1009 175.249 57.2049 175.249 58.5629C175.25 59.9199 174.145 61.0239 172.788 61.0239ZM194.85 61.0239C193.493 61.0239 192.388 59.9199 192.388 58.5629C192.388 57.2059 193.492 56.1009 194.85 56.1009C196.207 56.1009 197.311 57.2049 197.311 58.5629C197.312 59.9199 196.208 61.0239 194.85 61.0239Z" fill="#1F5B99"/>
<path d="M212.726 23.5166C217.055 19.1873 217.055 12.1681 212.726 7.83883C208.396 3.50952 201.377 3.50951 197.048 7.83883C192.719 12.1681 192.719 19.1873 197.048 23.5166C201.377 27.846 208.396 27.846 212.726 23.5166Z" fill="#F64652"/>
<path d="M209.911 17.349H206.662V20.5001H203.117V17.349H199.867V14.0021H203.117V10.8521H206.662V14.0031H209.911V17.349Z" fill="white"/>
<path d="M126.977 351.502C115.604 336.621 89.0529 296.743 88.3149 247.964C88.2639 244.624 92.2289 242.813 94.7169 245.042C109.375 258.172 143.852 295.588 133.806 349.906C133.204 353.169 128.992 354.138 126.977 351.502Z" fill="#2CD0D1"/>
<path d="M96.6191 256.225C96.6191 256.225 122.619 329.225 136.119 337.725" stroke="#0B334C" stroke-width="0.75" stroke-miterlimit="10" stroke-linecap="round" stroke-linejoin="round"/>
<path d="M91.8691 264.975L106.619 282.1" stroke="#0B334C" stroke-width="0.75" stroke-miterlimit="10" stroke-linecap="round" stroke-linejoin="round"/>
<path d="M113.869 270.475L111.244 293.475" stroke="#0B334C" stroke-width="0.75" stroke-miterlimit="10" stroke-linecap="round" stroke-linejoin="round"/>
<path d="M107.369 300.6L119.869 312.975" stroke="#0B334C" stroke-width="0.75" stroke-miterlimit="10" stroke-linecap="round" stroke-linejoin="round"/>
<path d="M137.788 394.771C124.423 398.496 109.881 391.188 101.322 380.268C92.7641 369.348 89.0431 355.476 86.1961 341.897C83.3491 328.318 81.0951 314.375 74.8311 301.995C70.0331 292.512 62.9071 284.236 54.3121 277.99C51.3651 275.848 53.1061 271.245 56.7311 271.613C77.6041 273.729 97.2461 282.639 109.933 299.566C115.235 306.64 119.1 314.846 125.393 321.053C132.054 327.623 141.12 331.622 146.849 339.019C151.152 344.574 153.167 351.562 154.364 358.487C155.696 366.196 156.093 374.318 153.417 381.67C150.741 389.022 145.324 392.671 137.788 394.771Z" fill="#2FDDDE"/>
<path d="M62.1191 277.725C62.1191 277.725 93.6191 296.225 98.1191 323.225C102.619 350.225 117.619 384.225 132.619 384.225" stroke="#0B334C" stroke-width="0.75" stroke-miterlimit="10" stroke-linecap="round" stroke-linejoin="round"/>
<path d="M71.3691 291.725L85.8691 298.225" stroke="#0B334C" stroke-width="0.75" stroke-miterlimit="10" stroke-linecap="round" stroke-linejoin="round"/>
<path d="M74.4941 298.725L89.6191 303.475" stroke="#0B334C" stroke-width="0.75" stroke-miterlimit="10" stroke-linecap="round" stroke-linejoin="round"/>
<path d="M89.4941 345.85L106.744 353.6" stroke="#0B334C" stroke-width="0.75" stroke-miterlimit="10" stroke-linecap="round" stroke-linejoin="round"/>
<path d="M90.1191 354.35L110.994 362.85" stroke="#0B334C" stroke-width="0.75" stroke-miterlimit="10" stroke-linecap="round" stroke-linejoin="round"/>
<path d="M105.744 309.725L100.119 331.85" stroke="#0B334C" stroke-width="0.75" stroke-miterlimit="10" stroke-linecap="round" stroke-linejoin="round"/>
<path d="M110.244 315.6L102.119 340.1" stroke="#0B334C" stroke-width="0.75" stroke-miterlimit="10" stroke-linecap="round" stroke-linejoin="round"/>
<path d="M328.645 373.629C326.956 349.063 325.775 279.54 362.044 243.338C363.834 241.551 366.883 242.496 367.34 244.983C370.318 261.212 374.993 312.14 334.394 375.086C332.765 377.611 328.851 376.626 328.645 373.629Z" fill="#2FDDDE"/>
<path d="M328.785 343.392C328.785 343.392 362.785 282.725 363.118 248.392" stroke="#0B334C" stroke-width="0.75" stroke-miterlimit="10" stroke-linecap="round" stroke-linejoin="round"/>
<path d="M351.119 260.559L354.285 288.059" stroke="#0B334C" stroke-width="0.75" stroke-miterlimit="10" stroke-linecap="round" stroke-linejoin="round"/>
<path d="M365.452 284.225L344.119 312.892" stroke="#0B334C" stroke-width="0.75" stroke-miterlimit="10" stroke-linecap="round" stroke-linejoin="round"/>
<path d="M399.698 255.711C375.411 316.63 333.719 361.373 313.127 381.737C311.017 383.823 310.462 387.003 311.729 389.686L311.771 389.775C313.021 392.423 315.79 394.017 318.707 393.767C344.476 391.558 369.074 380.544 383.682 356.588C396.586 335.426 402.306 284.052 404.503 256.839C404.732 253.992 400.756 253.057 399.698 255.711Z" fill="#2CD0D1"/>
<path d="M333.453 378.725C333.453 378.725 386.786 338.058 401.12 260.058" stroke="#0B334C" stroke-width="0.75" stroke-miterlimit="10" stroke-linecap="round" stroke-linejoin="round"/>
<path d="M382.871 295.475L383.371 313.475" stroke="#0B334C" stroke-width="0.75" stroke-miterlimit="10" stroke-linecap="round" stroke-linejoin="round"/>
<path d="M394.787 316.225L367.621 340.559" stroke="#0B334C" stroke-width="0.75" stroke-miterlimit="10" stroke-linecap="round" stroke-linejoin="round"/>
<path d="M359.286 331.725L352.953 359.225" stroke="#0B334C" stroke-width="0.75" stroke-miterlimit="10" stroke-linecap="round" stroke-linejoin="round"/>
<path d="M329.497 395.754H133.107C129.538 395.754 126.645 392.861 126.645 389.292V82.7149C126.645 79.1459 129.538 76.2539 133.107 76.2539H329.497C333.066 76.2539 335.959 79.1469 335.959 82.7149V389.292C335.959 392.861 333.066 395.754 329.497 395.754Z" fill="#0B334C"/>
<path d="M248.163 389.154H214.439C211.916 389.154 209.871 387.109 209.871 384.586V384.584C209.871 382.061 211.916 380.016 214.439 380.016H248.163C250.686 380.016 252.731 382.061 252.731 384.584V384.586C252.731 387.109 250.686 389.154 248.163 389.154Z" stroke="#005A7A" stroke-width="1.0766" stroke-miterlimit="10"/>
<path d="M322.179 375.13H140.423C138.278 375.13 136.539 373.391 136.539 371.246V94.2248C136.539 92.0798 138.278 90.3408 140.423 90.3408H322.179C324.324 90.3408 326.063 92.0798 326.063 94.2248V371.247C326.063 373.392 324.324 375.13 322.179 375.13Z" fill="white"/>
<path d="M304.662 246.917V256.922L309.486 261.746L304.662 266.57V276.575L319.491 261.746L304.662 246.917Z" fill="#00A2DD"/>
<path d="M157.942 246.917V256.922L153.118 261.746L157.942 266.57V276.575L143.113 261.746L157.942 246.917Z" fill="#00A2DD"/>
<path d="M274.547 306.899C274.547 308.69 273.095 310.142 271.304 310.142C269.513 310.142 268.061 308.69 268.061 306.899C268.061 305.108 269.513 303.656 271.304 303.656C273.095 303.656 274.547 305.108 274.547 306.899Z" fill="#FCB13A"/>
<path d="M289.14 306.899C289.14 308.69 287.688 310.142 285.897 310.142C284.106 310.142 282.654 308.69 282.654 306.899C282.654 305.108 284.106 303.656 285.897 303.656C287.688 303.656 289.14 305.108 289.14 306.899Z" fill="#00A2DD"/>
<path d="M303.732 306.899C303.732 308.69 302.28 310.142 300.489 310.142C298.698 310.142 297.246 308.69 297.246 306.899C297.246 305.108 298.698 303.656 300.489 303.656C302.28 303.656 303.732 305.108 303.732 306.899Z" fill="#F64652"/>
<path d="M303.731 326.159H242.414V332.448H303.731V326.159Z" fill="#8EE4FD"/>
<path d="M303.731 336.378H242.414V342.667H303.731V336.378Z" fill="#8EE4FD"/>
<path d="M280.775 346.598H242.414V352.887H280.775V346.598Z" fill="#8EE4FD"/>
<path d="M217.439 318.101H158.873V360.945H217.439V318.101Z" fill="#8EE4FD"/>
<path d="M161.156 322.052H215.156" stroke="#0B334C" stroke-width="0.3821" stroke-miterlimit="10" stroke-linecap="round" stroke-linejoin="round"/>
<path d="M169.656 345.281V329.093H195.531V345.281" stroke="#0B334C" stroke-width="0.3821" stroke-miterlimit="10" stroke-linecap="round" stroke-linejoin="round"/>
<path d="M196.406 345.265V333.288H203.564L207.281 338.932V345.312" stroke="#0B334C" stroke-width="0.3821" stroke-miterlimit="10" stroke-linecap="round" stroke-linejoin="round"/>
<path d="M208.156 345.343H168.156V347.843H208.156V345.343Z" stroke="#0B334C" stroke-width="0.3821" stroke-miterlimit="10" stroke-linecap="round" stroke-linejoin="round"/>
<path d="M179.282 349.687C179.282 351.81 177.561 353.531 175.438 353.531C173.315 353.531 171.594 351.81 171.594 349.687C171.594 347.564 173.315 345.843 175.438 345.843C177.561 345.843 179.282 347.564 179.282 349.687Z" fill="#0B334C"/>
<path d="M176.968 349.687C176.968 350.533 176.282 351.218 175.437 351.218C174.591 351.218 173.906 350.532 173.906 349.687C173.906 348.841 174.592 348.156 175.437 348.156C176.283 348.156 176.968 348.841 176.968 349.687Z" fill="#8EE4FD"/>
<path d="M202.842 349.687C202.842 351.81 201.121 353.531 198.998 353.531C196.875 353.531 195.154 351.81 195.154 349.687C195.154 347.564 196.875 345.843 198.998 345.843C201.121 345.843 202.842 347.564 202.842 349.687Z" fill="#0B334C"/>
<path d="M200.531 349.687C200.531 350.533 199.845 351.218 199 351.218C198.154 351.218 197.469 350.532 197.469 349.687C197.469 348.841 198.155 348.156 199 348.156C199.845 348.156 200.531 348.841 200.531 349.687Z" fill="#8EE4FD"/>
<path d="M204.813 338.125H197.875V334.625H202.657L204.813 338.125Z" stroke="#0B334C" stroke-width="0.3821" stroke-miterlimit="10" stroke-linecap="round" stroke-linejoin="round"/>
<path d="M276.99 223.079L285.048 215.414C285.554 213.22 256.65 190.454 248.465 184.059C247.396 183.224 245.836 183.331 244.953 184.361C241.172 188.767 233.832 191.888 231.3 192.873C228.768 191.888 221.428 188.767 217.647 184.361C216.763 183.331 215.204 183.223 214.135 184.059C205.95 190.454 177.046 213.22 177.553 215.414L185.611 223.079L211.75 206.57L217.056 226.616C217.056 226.616 193.575 255.486 196.325 284.466C196.374 284.983 196.817 285.378 197.337 285.378H265.266C265.786 285.378 266.229 284.983 266.278 284.466C269.028 255.486 245.547 226.616 245.547 226.616L250.853 206.57L276.99 223.079Z" fill="#FCB13A"/>
<path d="M216.006 184.914C216.006 184.914 227.006 195.081 231.173 195.247C235.34 195.414 245.506 186.08 245.506 186.08" stroke="#0B334C" stroke-width="0.5" stroke-miterlimit="10" stroke-linecap="round" stroke-linejoin="round"/>
<path d="M179.672 213.747L186.172 220.247" stroke="#0B334C" stroke-width="0.5" stroke-miterlimit="10" stroke-linecap="round" stroke-linejoin="round"/>
<path d="M282.84 213.414L275.84 220.414" stroke="#0B334C" stroke-width="0.5" stroke-miterlimit="10" stroke-linecap="round" stroke-linejoin="round"/>
<path d="M197.172 281.747H264.672" stroke="#0B334C" stroke-width="0.5" stroke-miterlimit="10" stroke-linecap="round" stroke-linejoin="round"/>
<path d="M218.193 226.08H244.027" stroke="#0B334C" stroke-width="0.5" stroke-miterlimit="10" stroke-linecap="round" stroke-linejoin="round"/>
<path d="M219.235 228.164L215.818 232.83" stroke="#0B334C" stroke-width="0.5" stroke-miterlimit="10" stroke-linecap="round" stroke-linejoin="round"/>
<path d="M223.543 228.164L222.377 232.497" stroke="#0B334C" stroke-width="0.5" stroke-miterlimit="10" stroke-linecap="round" stroke-linejoin="round"/>
<path d="M228.56 228.164L228.227 231.58" stroke="#0B334C" stroke-width="0.5" stroke-miterlimit="10" stroke-linecap="round" stroke-linejoin="round"/>
<path d="M242.984 228.164L246.401 232.83" stroke="#0B334C" stroke-width="0.5" stroke-miterlimit="10" stroke-linecap="round" stroke-linejoin="round"/>
<path d="M238.678 228.164L239.844 232.497" stroke="#0B334C" stroke-width="0.5" stroke-miterlimit="10" stroke-linecap="round" stroke-linejoin="round"/>
<path d="M233.66 228.164L233.993 231.58" stroke="#0B334C" stroke-width="0.5" stroke-miterlimit="10" stroke-linecap="round" stroke-linejoin="round"/>
<path d="M245.061 204.344C244.465 203.748 243.502 203.748 242.898 204.344L242.547 204.696L242.195 204.344C241.889 204.046 241.5 203.893 241.11 203.893C240.72 203.893 240.331 204.046 240.033 204.344C239.437 204.94 239.437 205.91 240.033 206.507L240.384 206.866L242.547 209.028L244.709 206.866L245.061 206.507C245.359 206.209 245.512 205.819 245.512 205.422C245.512 205.031 245.359 204.642 245.061 204.344Z" stroke="#0B334C" stroke-width="0.3821" stroke-miterlimit="10" stroke-linecap="round" stroke-linejoin="round"/>
<path d="M257.178 198.28C263.3 198.28 268.264 193.317 268.264 187.194C268.264 181.071 263.3 176.108 257.178 176.108C251.055 176.108 246.092 181.071 246.092 187.194C246.092 193.317 251.055 198.28 257.178 198.28Z" fill="#F64652"/>
<path d="M262.2 188.867H258.951V192.018H255.406V188.867H252.156V185.521H255.406V182.37H258.951V185.521H262.2V188.867Z" fill="white"/>
<path d="M324.206 90.1509H305.8H269.661H231.328H231.277H192.944H156.805H138.399L93.8438 145.289C95.9048 158.025 107.521 168.075 119.843 168.075C132.165 168.075 141.066 158.025 139.686 145.289H139.817C141.192 158.025 152.282 168.075 164.623 168.075C176.964 168.075 186.422 158.025 185.729 145.289H185.79C186.471 158.025 196.933 168.075 209.177 168.075C220.991 168.075 230.642 158.717 231.302 146.619C231.962 158.717 241.613 168.075 253.427 168.075C265.575 168.075 275.965 158.181 276.791 145.587C276.26 158.181 285.676 168.075 297.941 168.075C310.302 168.075 321.41 158.025 322.787 145.289H322.822C321.439 158.025 330.359 168.075 342.707 168.075C355.055 168.075 366.695 158.025 368.761 145.289L324.206 90.1509Z" fill="#FCB13A"/>
<path d="M119.843 168.074C132.165 168.074 141.066 158.024 139.686 145.288H93.8438C95.9048 158.025 107.521 168.074 119.843 168.074Z" fill="#FFC757"/>
<path d="M164.622 168.074C176.963 168.074 186.421 158.024 185.728 145.288H139.816C141.192 158.025 152.282 168.074 164.622 168.074Z" fill="#FF5965"/>
<path d="M209.176 168.074C221.42 168.074 231.343 158.024 231.34 145.288H185.789C186.47 158.025 196.932 168.074 209.176 168.074Z" fill="#FFC757"/>
<path d="M253.427 168.074C265.671 168.074 276.134 158.024 276.815 145.288H231.264C231.26 158.025 241.183 168.074 253.427 168.074Z" fill="#FF5965"/>
<path d="M297.94 168.074C310.301 168.074 321.409 158.024 322.787 145.288H276.799C276.106 158.025 285.579 168.074 297.94 168.074Z" fill="#FFC757"/>
<path d="M342.707 168.074C355.055 168.074 366.695 158.024 368.761 145.288H322.823C321.44 158.025 330.359 168.074 342.707 168.074Z" fill="#FF5965"/>
<path d="M139.816 145.289H185.789L192.943 90.1509H156.804L139.816 145.289Z" fill="#F64652"/>
<path d="M368.76 145.289L324.205 90.1509H305.799L322.787 145.289H368.76Z" fill="#F64652"/>
<path d="M269.662 90.1509H231.278L231.264 145.289H276.816L269.662 90.1509Z" fill="#F64652"/>
<path d="M316.249 64.4238V34.7798C316.249 33.9288 315.559 33.2388 314.708 33.2388H272.189C271.338 33.2388 270.648 33.9288 270.648 34.7798V64.4248L267.892 74.6788C267.674 75.4908 268.285 76.2888 269.126 76.2888H270.648H316.249H317.771C318.612 76.2888 319.223 75.4908 319.005 74.6788L316.249 64.4238Z" fill="#00A2DD"/>
<path d="M283.305 35.1839V24.6469C283.305 22.4989 285.051 20.7529 287.199 20.7529H299.699C301.846 20.7529 303.593 22.4989 303.593 24.6469V35.1839H306.052V24.6469C306.052 21.1439 303.202 18.2939 299.699 18.2939H287.199C283.696 18.2939 280.846 21.1439 280.846 24.6469V35.1839H283.305Z" fill="#00A2DD"/>
<path d="M274.785 65.0801H311.452" stroke="#0B334C" stroke-width="0.3821" stroke-miterlimit="10" stroke-linecap="round" stroke-linejoin="round"/>
<path d="M425.752 350.599H412.854L417.953 390.432L421.203 393.578L423.391 390.432C424.943 377.839 427.752 362.758 426.11 353.16C426.11 353.16 425.937 352.143 425.752 350.599Z" fill="#AB5C3C"/>
<path d="M418.054 390.437C418.054 390.437 421.085 392.442 423.37 390.438L423.852 391.764C424.273 392.923 424.489 394.147 424.489 395.38V395.754L408.588 395.752C408.588 394.605 409.308 393.581 410.387 393.193L418.054 390.437Z" fill="#FCB13A"/>
<path d="M445.816 350.599H432.918L438.017 390.432L441.267 393.578L443.455 390.432C445.007 377.839 447.816 362.758 446.174 353.16C446.174 353.16 446 352.143 445.816 350.599Z" fill="#AB5C3C"/>
<path d="M438.116 390.437C438.116 390.437 441.147 392.442 443.432 390.438L443.914 391.764C444.335 392.923 444.551 394.147 444.551 395.38V395.754L428.65 395.752C428.65 394.605 429.37 393.581 430.449 393.193L438.116 390.437Z" fill="#FCB13A"/>
<path d="M409.452 263.265C409.452 263.265 402.619 277.265 403.619 291.598C404.619 305.931 408.952 359.598 408.952 359.598C408.952 359.598 443.785 360.765 449.285 359.598C454.785 358.431 459.118 275.098 442.618 262.431L409.452 263.265Z" fill="#F64652"/>
<path d="M409.785 355.599H450.119" stroke="#0B334C" stroke-width="0.5" stroke-miterlimit="10" stroke-linecap="round" stroke-linejoin="round"/>
<path d="M446.785 292.432C446.785 292.432 453.452 324.932 446.785 355.599" stroke="#0B334C" stroke-width="0.5" stroke-miterlimit="10" stroke-linecap="round" stroke-linejoin="round"/>
<path d="M418.119 317.099C418.119 317.099 430.119 308.099 432.869 299.599L418.119 317.099Z" fill="#0B334C"/>
<path d="M412.731 247.601C411.704 246.236 410.938 244.847 410.278 243.442C409.271 242.243 408.283 241.031 407.315 239.804C406.443 241.319 405.556 242.824 404.635 244.31C404.63 244.309 404.635 244.31 404.63 244.309C404.53 242.059 404.47 239.809 404.44 237.549C404.39 234.109 404.44 230.649 404.53 227.179C404.61 223.729 404.79 220.219 405 216.819L405.01 216.729C405.01 216.699 405.01 216.66 405.02 216.63C405.919 215.424 407.833 212.745 407.466 212.23C406.989 211.562 404.705 212.982 404.705 212.982C404.705 212.982 405.418 207.002 404.743 206.7C404.068 206.399 403.17 211.191 403.17 211.191C403.17 211.191 403.112 207.146 402.344 206.841C401.576 206.537 401.511 211.713 401.511 211.713C401.511 211.713 400.512 207.716 399.636 207.875C398.76 208.034 400.217 212.792 400.217 212.792C400.217 212.792 398.9 210.169 398.302 210.399C397.842 210.576 398.81 214.419 399.282 216.184L399.281 216.189C397.711 223.149 396.601 230.079 395.891 237.159C395.701 238.949 395.571 240.749 395.431 242.549C395.331 244.359 395.211 246.159 395.171 247.979L395.168 248.058C395.005 252.531 398.149 256.463 402.533 257.361C402.759 257.407 402.985 257.454 403.21 257.5C406.775 258.238 410.429 256.824 412.587 253.893C413.462 252.704 414.311 251.501 415.151 250.293C414.294 249.47 413.475 248.591 412.731 247.601Z" fill="#AB5C3C"/>
<path d="M403.496 246.161L404.683 244.349L404.621 245.911" stroke="#0B334C" stroke-width="0.5" stroke-miterlimit="10" stroke-linecap="round" stroke-linejoin="round"/>
<path d="M421.182 221.349C421.182 221.349 412.682 229.849 405.494 242.224C405.494 242.224 411.619 252.287 413.682 252.849C413.682 252.849 423.432 238.536 424.745 234.349C426.058 230.162 425.682 222.536 421.182 221.349Z" fill="#FCB13A"/>
<path d="M423.282 219.055V207.574H432.306V219.055C432.306 220.437 433.426 221.557 434.808 221.557C426.856 233.351 420.691 221.557 420.691 221.557H420.78C422.162 221.556 423.282 220.436 423.282 219.055Z" fill="#AB5C3C"/>
<path d="M423.279 214.807V216.709C423.719 216.746 424.159 216.724 424.599 216.634C426.547 216.261 429.322 215.366 431.046 213.239C431.464 212.732 431.889 212.001 432.307 211.12V210.829C432.158 211.068 432.001 211.284 431.852 211.471C430.128 213.597 427.353 214.493 425.406 214.866C424.69 215.009 423.966 214.979 423.279 214.807Z" fill="#061D2B"/>
<path d="M421.744 220.474C421.744 220.474 426.369 226.474 433.369 220.474C433.369 220.474 434.17 221.042 435.869 220.974C438.994 220.849 443.369 224.474 440.369 236.224C437.369 247.974 444.994 265.099 444.994 265.099C444.994 265.099 408.119 267.099 407.869 265.099C407.619 263.099 412.244 241.099 411.244 235.974C410.244 230.849 410.869 223.474 421.744 220.474Z" fill="#FCB13A"/>
<path d="M410.307 248.911C410.307 248.911 411.182 237.536 411.057 234.098" stroke="#0B334C" stroke-width="0.5" stroke-miterlimit="10" stroke-linecap="round" stroke-linejoin="round"/>
<path d="M420.932 221.411C420.932 221.411 428.057 227.599 433.932 221.411" stroke="#0B334C" stroke-width="0.5" stroke-miterlimit="10" stroke-linecap="round" stroke-linejoin="round"/>
<path d="M435.498 271.585C435.4 271.332 433.084 265.34 432.388 261.857C431.835 259.093 434.086 256.273 437.622 255.296L438.155 257.224C435.64 257.918 434.005 259.742 434.348 261.464C435.01 264.777 437.339 270.801 437.363 270.861L435.498 271.585Z" fill="#00A2DD"/>
<path d="M456.509 254.509C456.329 253.949 456.149 253.389 455.949 252.829C454.979 249.899 453.879 247.019 452.709 244.179C452.423 243.488 452.107 242.812 451.809 242.127C448.176 243.969 444.583 245.892 440.999 247.832C441.209 248.262 441.433 248.688 441.639 249.118C442.749 251.428 443.799 253.748 444.789 256.088C440.549 257.098 436.189 257.908 431.809 258.608C428.409 259.158 424.979 259.618 421.539 260.028C418.109 260.448 414.609 260.778 411.219 261.058L411.129 261.068C411.099 261.068 411.079 261.068 411.049 261.078C411.046 261.078 411.043 261.079 411.04 261.08C409.724 260.368 406.776 258.852 406.318 259.291C405.726 259.859 407.463 261.914 407.463 261.914C407.463 261.914 401.442 262.076 401.242 262.788C401.042 263.499 405.914 263.693 405.914 263.693C405.914 263.693 401.92 264.338 401.73 265.142C401.54 265.946 406.672 265.259 406.672 265.259C406.672 265.259 402.862 266.827 403.146 267.671C403.43 268.515 407.927 266.383 407.927 266.383C407.927 266.383 405.523 268.066 405.837 268.625C406.079 269.054 409.73 267.543 411.412 266.819C418.531 267.359 425.55 267.449 432.67 267.129C434.46 267.059 436.26 266.929 438.06 266.799C439.87 266.639 441.67 266.499 443.47 266.269C445.09 266.099 446.72 265.879 448.34 265.619C450.33 265.309 452.33 264.929 454.34 264.519C454.355 264.516 454.371 264.512 454.386 264.509C456.904 263.98 458.475 261.414 457.799 258.932C457.394 257.448 456.959 255.974 456.509 254.509Z" fill="#AB5C3C"/>
<path d="M435.619 220.974C435.619 220.974 442.494 220.974 445.307 225.537C448.12 230.1 454.12 245.912 454.12 245.912C454.12 245.912 445.557 250.975 441.932 251.35L432.994 233.912C432.994 233.912 428.056 225.536 435.619 220.974Z" fill="#FCB13A"/>
<path d="M440.056 247.599L434.744 235.536" stroke="#0B334C" stroke-width="0.5" stroke-miterlimit="10" stroke-linecap="round" stroke-linejoin="round"/>
<path d="M441.869 249.599L453.244 244.911" stroke="#0B334C" stroke-width="0.5" stroke-miterlimit="10" stroke-linecap="round" stroke-linejoin="round"/>
<path d="M457.241 286.273L455.045 269.668C454.858 268.254 453.56 267.259 452.145 267.446L433.309 269.937C431.895 270.124 430.9 271.422 431.087 272.837L433.283 289.442L432.634 291.778C432.402 292.615 433.099 293.417 433.96 293.303L457.59 290.178C458.451 290.064 458.916 289.108 458.474 288.361L457.241 286.273Z" fill="#00A2DD"/>
<path d="M449.371 270.124L447.371 270.073C447.45 266.914 446.791 258.463 442.841 257.308C441.257 256.844 439.636 256.817 438.158 257.224L437.625 255.296C439.462 254.788 441.459 254.82 443.401 255.388C449.631 257.209 449.384 269.598 449.371 270.124Z" fill="#00A2DD"/>
<path d="M435.619 288.474L455.369 285.974L453.744 269.349" stroke="#0B334C" stroke-width="0.5" stroke-miterlimit="10" stroke-linecap="round" stroke-linejoin="round"/>
<path d="M436.006 201.68C435.945 201.655 435.882 201.645 435.82 201.625C436.601 197.178 433.853 192.76 429.367 191.573C424.51 190.29 419.556 193.296 418.474 198.199C417.847 201.034 417.333 203.989 417.295 206.1C417.28 206.689 417.303 207.212 417.377 207.652C417.519 208.495 417.802 209.278 418.175 209.995C418.996 211.607 420.257 212.897 421.301 213.785C422.435 214.755 423.942 215.15 425.405 214.867C427.352 214.494 430.128 213.599 431.851 211.472C432.573 210.586 433.31 209.039 434.014 207.229C435.26 207.326 436.897 206.03 437.358 204.903C437.874 203.64 437.269 202.197 436.006 201.68Z" fill="#AB5C3C"/>
<path d="M428.666 209.999C429.825 209.999 430.764 209.059 430.764 207.901C430.764 206.742 429.825 205.803 428.666 205.803C427.508 205.803 426.568 206.742 426.568 207.901C426.568 209.059 427.508 209.999 428.666 209.999Z" fill="#AB4627"/>
<path d="M417.295 206.1C417.28 206.69 417.303 207.212 417.377 207.652C417.519 208.495 417.802 209.278 418.175 209.995C418.235 210.002 418.302 210.002 418.361 210.002C419.517 210.002 420.458 209.062 420.458 207.898C420.458 206.742 419.518 205.801 418.361 205.801C417.966 205.802 417.608 205.914 417.295 206.1Z" fill="#AB4627"/>
<path d="M423.838 203.144C424.2 203.932 424.018 204.815 423.873 205.541C423.791 205.915 423.69 206.278 423.699 206.547C423.7 206.814 423.923 207.141 424.171 207.481C423.784 207.392 423.316 207.216 423.118 206.698C422.943 206.193 423.059 205.768 423.121 205.38C423.303 204.582 423.587 203.933 423.838 203.144Z" fill="#061D2B"/>
<path d="M425.878 200.664C426.406 200.406 426.992 200.373 427.56 200.551C427.841 200.634 428.111 200.786 428.324 200.988C428.553 201.178 428.686 201.446 428.796 201.694C428.832 201.776 428.795 201.872 428.714 201.908C428.65 201.937 428.577 201.92 428.531 201.872L428.519 201.859C428.183 201.509 427.807 201.304 427.387 201.231C426.97 201.167 426.51 201.203 426.069 201.228L426.026 201.23C425.861 201.239 425.72 201.113 425.711 200.949C425.704 200.826 425.773 200.715 425.878 200.664Z" fill="#061D2B"/>
<path d="M421.473 201.228C421.032 201.203 420.572 201.167 420.155 201.231C419.735 201.304 419.359 201.509 419.023 201.859L419.011 201.872C418.949 201.937 418.846 201.939 418.782 201.877C418.731 201.828 418.719 201.755 418.746 201.694C418.856 201.446 418.989 201.178 419.218 200.988C419.431 200.785 419.7 200.634 419.982 200.551C420.55 200.373 421.137 200.406 421.664 200.664C421.812 200.737 421.873 200.915 421.801 201.064C421.747 201.175 421.632 201.237 421.516 201.231L421.473 201.228Z" fill="#061D2B"/>
<path d="M419.791 204.294C419.791 204.998 420.146 205.569 420.584 205.569C421.022 205.569 421.377 204.998 421.377 204.294C421.377 203.59 421.022 203.019 420.584 203.019C420.146 203.019 419.791 203.591 419.791 204.294Z" fill="#061D2B"/>
<path d="M426.957 205.569C427.395 205.569 427.75 204.998 427.75 204.294C427.75 203.589 427.395 203.019 426.957 203.019C426.519 203.019 426.164 203.589 426.164 204.294C426.164 204.998 426.519 205.569 426.957 205.569Z" fill="#061D2B"/>
<path d="M425.668 209.106C425.856 208.982 426.06 208.94 426.239 208.83C426.445 208.777 426.609 208.67 426.812 208.58C426.715 208.793 426.495 208.889 426.311 209.002C426.098 209.054 425.894 209.138 425.668 209.106Z" fill="#061D2B"/>
<path d="M423.766 208.405C424.447 208.471 425.117 208.516 425.693 208.279C425.989 208.188 426.237 207.996 426.446 207.762C426.671 207.536 426.816 207.238 426.992 206.938C426.965 207.28 426.881 207.634 426.673 207.938C426.482 208.248 426.17 208.489 425.827 208.627C425.122 208.866 424.359 208.765 423.766 208.405Z" fill="#061D2B"/>
<path d="M420.402 193.317C418.788 194.736 417.146 197.127 416.896 201.05C416.876 201.361 417.099 201.643 417.406 201.697C419.508 202.066 427.278 203.264 431.308 201.598L432.058 199.473C432.058 199.473 431.835 204.357 433.121 204.411C434.621 204.474 436.559 201.473 436.621 200.348C436.68 199.284 436.795 189.945 425.755 191.104C423.791 191.311 421.884 192.014 420.402 193.317Z" fill="#061D2B"/>
<path d="M431.896 193.276C431.896 193.276 433.258 186.264 439.42 188.907C445.582 191.55 443.343 198.013 441.425 199.794C439.507 201.574 433.711 199.543 432.973 198.886C432.234 198.228 431.896 193.276 431.896 193.276Z" fill="#061D2B"/>
<path d="M433.203 192.724C433.203 192.724 436.203 195.016 436.536 199.349C436.536 199.349 437.453 194.765 433.203 192.724Z" fill="#F64652"/>
</svg>
